<svg xmlns="http://www.w3.org/2000/svg" width="148" height="24" fill="none" viewBox="0 0 148 24">
  <g clip-path="url(#clip0_257_495)">
    <path fill="#000" d="M50.575 0h-4.928l-2.085 24h9.856l.38-4.834H48.91L50.576 0z"/>
    <path fill="#000" d="M53.797 19.166h4.738l.38-4.787h-4.738l-.38 4.787zM59.313 9.497h-.02l-.378 4.882h4.928l.364-4.694h.014L65.17 0h-4.93l-.928 9.497zM26.503 0l-2.085 24h14.31l.38-4.75h-9.539l.46-4.798 9.648.02.38-4.88-9.646-.02.408-4.694 9.615.02.57-4.898h-14.5zM70.097 0l-2.085 24h14.31l.57-4.458-9.736-.206.468-5.072 9.647.208.57-4.693-9.836-.207.408-4.694 9.615.02.57-4.898h-14.5zM94.36 0h-4.93l-2.084 24h14.5l.569-4.75h-9.728L94.36 0zM108.953 0l-1.895 24.007h14.784l1.895-24L108.953 0zm8.193 19.156l-4.928-.01 1.239-14.267 4.928.01-1.239 14.267zM128.667 0l-2.085 24h4.737l.836-9.621h9.59l.473-4.694h-9.655l.424-4.872 9.651.121-.42 4.75h5.023L148 0h-19.333zM20.37 9.465l-14.223.016L6.95.11 2.02.143 0 23.677h4.929l.81-9.437 9.447.065-.789 9.375h4.777l1.203-14.16h-.011l.004-.055zM16.046 4.862h4.776L21.194.11h-4.776l-.372 4.752z"/>
  </g>
  <defs>
    <clipPath id="clip0_257_495">
      <path fill="#fff" d="M0 0h148v24H0z"/>
    </clipPath>
  </defs>
</svg>
